HIERARCHY
ROOT Hips
{
	OFFSET 0.000000 0.000000 0.000000
	CHANNELS 6 Xposition Yposition Zposition Xrotation Yrotation Zrotation
	JOINT LeftUpLeg_virtual
	{
		OFFSET 0.000000 0.000000 0.000000
		CHANNELS 3 Xrotation Yrotation Zrotation
		JOINT LeftUpLeg
		{
			OFFSET 11.394100 -6.187798 -0.413800
			CHANNELS 3 Xrotation Yrotation Zrotation
			JOINT LeftLeg
			{
				OFFSET 0.430247 -32.302673 3.732800
				CHANNELS 3 Xrotation Yrotation Zrotation
				JOINT LeftFoot
				{
					OFFSET -0.430247 -48.264931 -6.423300
					CHANNELS 3 Xrotation Yrotation Zrotation
					JOINT LeftToeBase
					{
						OFFSET 4.230900 -16.068199 23.438400
						CHANNELS 3 Xrotation Yrotation Zrotation
						JOINT LeftToe_End
						{
							OFFSET 4.510700 0.695400 19.974600
							CHANNELS 3 Xrotation Yrotation Zrotation
							End Site
							{
								OFFSET 0 0 0
							}
						}
					}
				}
			}
		}
	}
	JOINT RightUpLeg_virtual
	{
		OFFSET 0.000000 0.000000 0.000000
		CHANNELS 3 Xrotation Yrotation Zrotation
		JOINT RightUpLeg
		{
			OFFSET -11.333700 -6.187798 -0.413800
			CHANNELS 3 Xrotation Yrotation Zrotation
			JOINT RightLeg
			{
				OFFSET -0.430392 -32.302628 3.733000
				CHANNELS 3 Xrotation Yrotation Zrotation
				JOINT RightFoot
				{
					OFFSET 0.430392 -48.264973 -6.423500
					CHANNELS 3 Xrotation Yrotation Zrotation
					JOINT RightToeBase
					{
						OFFSET -4.230900 -16.068199 23.438400
						CHANNELS 3 Xrotation Yrotation Zrotation
						JOINT RightToe_End
						{
							OFFSET -4.510700 0.695400 19.974600
							CHANNELS 3 Xrotation Yrotation Zrotation
							End Site
							{
								OFFSET 0 0 0
							}
						}
					}
				}
			}
		}
	}
	JOINT Spine_virtual
	{
		OFFSET 0.000000 0.000000 0.000000
		CHANNELS 3 Xrotation Yrotation Zrotation
		JOINT Spine
		{
			OFFSET -0.002400 12.777504 0.315300
			CHANNELS 3 Xrotation Yrotation Zrotation
			JOINT Spine1
			{
				OFFSET -0.002067 5.816869 0.032633
				CHANNELS 3 Xrotation Yrotation Zrotation
				JOINT Spine1_split
				{
					OFFSET -0.002067 5.816869 0.032633
					CHANNELS 3 Xrotation Yrotation Zrotation
					JOINT Spine2
					{
						OFFSET -0.002067 5.816869 0.032633
						CHANNELS 3 Xrotation Yrotation Zrotation
						JOINT Neck_virtual
						{
							OFFSET 0.000000 0.000000 0.000000
							CHANNELS 3 Xrotation Yrotation Zrotation
							JOINT Neck
							{
								OFFSET -0.003700 21.199493 -0.826900
								CHANNELS 3 Xrotation Yrotation Zrotation
								JOINT Head
								{
									OFFSET 0.000000 20.442200 4.834800
									CHANNELS 3 Xrotation Yrotation Zrotation
									JOINT HeadTop_End
									{
										OFFSET 0.000000 34.668396 4.968400
										CHANNELS 3 Xrotation Yrotation Zrotation
										End Site
										{
											OFFSET 0 0 0
										}
									}
								}
							}
						}
						JOINT LeftShoulder_virtual
						{
							OFFSET 0.000000 0.000000 0.000000
							CHANNELS 3 Xrotation Yrotation Zrotation
							JOINT LeftShoulder
							{
								OFFSET 3.288150 8.794197 -1.372250
								CHANNELS 3 Xrotation Yrotation Zrotation
								JOINT LeftShoulder_split
								{
									OFFSET 3.288150 8.794197 -1.372250
									CHANNELS 3 Xrotation Yrotation Zrotation
									JOINT LeftArm
									{
										OFFSET 11.953299 -2.279007 -0.146200
										CHANNELS 3 Xrotation Yrotation Zrotation
										JOINT LeftForeArm
										{
											OFFSET 18.448900 0.000000 0.000000
											CHANNELS 3 Xrotation Yrotation Zrotation
											JOINT LeftHand
											{
												OFFSET 29.527798 0.000000 0.000000
												CHANNELS 3 Xrotation Yrotation Zrotation
												End Site
												{
													OFFSET 0 0 0
												}
											}
										}
									}
								}
							}
						}
						JOINT RightShoulder_virtual
						{
							OFFSET 0.000000 0.000000 0.000000
							CHANNELS 3 Xrotation Yrotation Zrotation
							JOINT RightShoulder
							{
								OFFSET -3.249400 8.794197 -1.372250
								CHANNELS 3 Xrotation Yrotation Zrotation
								JOINT RightShoulder_split
								{
									OFFSET -3.249400 8.794197 -1.372250
									CHANNELS 3 Xrotation Yrotation Zrotation
									JOINT RightArm
									{
										OFFSET -11.953299 -2.279007 -0.146200
										CHANNELS 3 Xrotation Yrotation Zrotation
										JOINT RightForeArm
										{
											OFFSET -18.448900 0.000000 0.000000
											CHANNELS 3 Xrotation Yrotation Zrotation
											JOINT RightHand
											{
												OFFSET -29.527802 0.000000 0.000000
												CHANNELS 3 Xrotation Yrotation Zrotation
												End Site
												{
													OFFSET 0 0 0
												}
											}
										}
									}
								}
							}
						}
					}
				}
			}
		}
	}
}
MOTION
Frames: 6
Frame Time: 0.03333333
4.702516 85.702194 -6.608582 0.000000 0.000000 0.000000 -8.801868 9.044823 0.395517 -27.214450 -3.832953 12.705158 56.152901 -2.133116 1.637247 -15.720792 3.186243 -15.615518 -0.478422 -4.322415 1.802328 0.000000 0.000000 0.000000 -9.026955 7.801192 0.489731 -18.834921 -10.237005 -10.585771 54.350479 5.828909 -4.170954 -25.028193 -17.885511 16.092445 4.233694 7.456979 -23.717881 0.000000 0.000000 0.000000 -9.081808 12.483476 0.603048 13.693798 -1.279166 1.104208 6.446229 -3.551408 -0.475784 0.255354 -0.189445 0.163846 0.000000 0.000000 0.000000 8.395522 -1.908005 -0.310759 14.259495 11.437426 3.580889 -36.924392 -7.169346 5.579890 0.000000 0.000000 0.000000 7.011473 -3.144647 -0.462413 3.662432 -1.275112 -8.137817 9.397242 -6.269857 -6.414942 -22.683680 -17.446735 -43.597709 70.241993 -53.514204 62.537294 0.000000 0.000000 0.000000 7.144798 -3.551293 -0.804748 3.483072 -11.714059 18.536447 6.173858 -0.130527 7.503127 -25.774537 20.298455 66.251182 97.011827 85.538229 -101.646336 0.000000 0.000000 0.000000 
4.574549 85.718895 -6.470564 0.000000 0.000000 0.000000 -8.969521 8.835673 0.277681 -27.268755 -3.565362 12.807501 56.211733 -2.163156 1.719562 -16.055582 3.067859 -15.593887 -0.520210 -4.334890 1.947621 0.000000 0.000000 0.000000 -9.189268 7.813015 0.369379 -18.907617 -10.479967 -10.637542 54.433117 5.828409 -4.082548 -24.969584 -17.841943 15.983925 4.789096 7.377549 -23.739152 0.000000 0.000000 0.000000 -9.235679 12.424916 0.448896 14.017938 -1.306285 1.017482 6.514855 -3.403904 -0.174814 0.183987 -0.079774 0.139363 0.000000 0.000000 0.000000 8.247066 -1.785062 -0.189443 13.877088 11.250163 3.663134 -36.900391 -7.946275 5.948565 0.000000 0.000000 0.000000 7.201497 -3.019097 -0.378828 4.008037 -1.021646 -8.122251 9.405358 -4.714581 -7.217212 -23.775730 -18.154580 -46.909077 67.473192 -51.895702 59.928380 0.000000 0.000000 0.000000 7.291238 -3.358469 -0.657550 3.134580 -11.814489 17.748868 5.753639 -2.289115 8.176559 -25.009781 21.244253 65.419627 64.352205 85.558160 -68.979419 0.000000 0.000000 0.000000 
4.502624 85.810402 -6.282055 0.000000 0.000000 0.000000 -9.204434 8.738185 0.133761 -27.416413 -3.351221 12.819549 56.561326 -2.164218 1.934011 -16.282980 2.836956 -15.891135 -0.344505 -4.316928 2.085713 0.000000 0.000000 0.000000 -9.394095 7.903004 0.204576 -18.776402 -10.868281 -10.625188 54.322974 5.896450 -4.049909 -24.750905 -17.709381 16.081088 4.886552 7.380398 -23.654492 0.000000 0.000000 0.000000 -9.477366 12.337737 0.134137 14.480134 -1.368113 0.713542 6.682340 -3.103100 0.112395 0.130662 -0.113301 0.021616 0.000000 0.000000 0.000000 8.119417 -1.492592 -0.105929 13.138508 10.947718 3.760096 -36.548086 -9.756317 6.213722 0.000000 0.000000 0.000000 7.406912 -2.763255 -0.338929 4.075443 -0.877373 -7.794082 8.748033 -3.769932 -6.396544 -23.520781 -18.928843 -49.871084 62.519167 -51.101266 55.650636 0.000000 0.000000 0.000000 7.553674 -2.981470 -0.479438 2.762999 -11.439419 16.480936 3.726749 -2.968588 7.634057 -22.848613 22.052049 64.915607 37.286587 83.493981 -42.168987 0.000000 0.000000 0.000000 
4.507264 86.003960 -6.086216 0.000000 0.000000 0.000000 -9.468266 8.891416 0.068029 -27.465102 -3.233668 12.651454 56.835421 -2.037032 2.221170 -16.311970 2.609372 -16.293228 -0.186261 -4.279362 2.219314 0.000000 0.000000 0.000000 -9.543766 8.059254 0.088519 -18.287524 -11.339895 -10.512618 54.005756 5.965694 -4.069490 -24.628445 -17.546961 16.099391 4.641360 7.440302 -23.419117 0.000000 0.000000 0.000000 -9.789154 12.337609 -0.216402 14.953914 -1.520565 0.254025 6.864500 -2.709834 0.333780 0.131911 -0.274210 -0.034221 0.000000 0.000000 0.000000 8.036232 -1.097622 -0.058568 12.246509 10.532836 3.810169 -35.757075 -12.226588 6.197937 0.000000 0.000000 0.000000 7.526841 -2.405305 -0.308442 3.880663 -0.660372 -6.822663 7.985269 -3.620813 -4.387829 -21.876411 -20.057031 -51.185755 57.232474 -51.895767 51.313732 0.000000 0.000000 0.000000 7.829501 -2.517629 -0.322585 2.461703 -10.676787 14.757889 1.499393 -2.312696 6.451524 -18.810013 22.754355 63.913912 31.443916 82.067018 -36.411773 0.000000 0.000000 0.000000 
4.572290 86.368469 -5.896414 0.000000 0.000000 0.000000 -9.743132 9.254418 0.139666 -27.236387 -3.213436 12.243960 56.663403 -1.761904 2.525044 -16.040266 2.496897 -16.628567 -0.202630 -4.230914 2.330107 0.000000 0.000000 0.000000 -9.637183 8.294628 0.106346 -17.431107 -11.823530 -10.312179 53.396565 6.003561 -4.137173 -24.637908 -17.390628 15.890403 4.333795 7.505808 -23.040421 0.000000 0.000000 0.000000 -10.145226 12.444564 -0.482486 15.307659 -1.859143 -0.265866 6.958809 -2.291143 0.453672 0.118574 -0.523516 -0.020294 0.000000 0.000000 0.000000 8.076422 -0.675580 -0.033062 11.522518 10.045255 3.782420 -34.491724 -14.822176 5.752790 0.000000 0.000000 0.000000 7.524747 -2.003090 -0.257075 3.536344 -0.166709 -5.119838 7.244604 -3.270430 -2.891215 -18.427838 -21.783929 -49.894846 52.331195 -54.828616 47.573558 0.000000 0.000000 0.000000 8.051220 -2.072251 -0.189138 2.251126 -9.653358 12.634745 -0.231446 -1.156232 4.930971 -12.619214 23.558555 61.432654 33.856121 82.063432 -38.507080 0.000000 0.000000 0.000000 
4.662884 86.935555 -5.715586 0.000000 0.000000 0.000000 -9.968370 9.679781 0.395447 -26.603949 -3.261705 11.612043 55.816787 -1.352529 2.786888 -15.552585 2.546683 -16.688985 -0.310434 -4.186418 2.347957 0.000000 0.000000 0.000000 -9.690663 8.628024 0.301381 -16.409973 -12.263958 -10.093143 52.516259 6.040124 -4.227888 -24.551504 -17.232210 15.606726 4.049286 7.574941 -22.571164 0.000000 0.000000 0.000000 -10.442155 12.651107 -0.530551 15.378135 -2.432387 -0.733836 6.925548 -1.911907 0.499699 0.077168 -0.741089 0.012663 0.000000 0.000000 0.000000 8.193615 -0.270401 0.006276 11.143426 9.534508 3.684838 -32.809756 -17.297666 4.693647 0.000000 0.000000 0.000000 7.412296 -1.597882 -0.134249 3.189060 0.513097 -2.795280 6.865779 -3.213057 -2.171846 -12.843666 -23.735483 -45.224045 47.860194 -59.648684 44.276940 0.000000 0.000000 0.000000 8.101841 -1.715533 -0.090523 2.126311 -8.487852 10.259889 -1.238466 0.070610 3.320564 -4.778506 23.745566 56.390096 35.788631 82.327979 -39.759856 0.000000 0.000000 0.000000 
